<?xml version="1.0" standalone="no"?>
<!DOCTYPE svg PUBLIC "-//W3C//DTD SVG 20010904//EN"
 "http://www.w3.org/TR/2001/REC-SVG-20010904/DTD/svg10.dtd">
<svg version="1.0" xmlns="http://www.w3.org/2000/svg"
 width="800.000000pt" height="800.000000pt" viewBox="0 0 800.000000 800.000000"
 preserveAspectRatio="xMidYMid meet">
<metadata>
Created by potrace 1.15, written by Peter Selinger 2001-2017
</metadata>
<g transform="translate(0.000000,800.000000) scale(0.100000,-0.100000)"
fill="#000000" stroke="none">
<path d="M2889 7776 c-167 -49 -317 -176 -390 -330 -75 -160 -70 132 -67
-3486 l3 -3245 21 -61 c74 -214 234 -372 436 -431 l80 -23 974 0 974 0 -40 36
c-70 64 -82 144 -55 369 8 66 18 170 21 232 7 111 7 112 -20 143 -26 32 -33
74 -17 115 4 11 4 36 -2 55 -10 39 -84 193 -152 318 -48 89 -56 132 -29 171
16 22 14 28 -25 119 l-42 97 -102 66 c-56 37 -152 107 -214 158 -131 107 -510
471 -576 553 -171 212 -446 618 -528 781 -12 23 -27 45 -33 49 -6 4 -41 10
-78 14 -37 4 -72 12 -77 18 -5 6 -17 38 -26 70 -10 33 -57 138 -106 235 -122
240 -157 321 -180 415 -24 103 -24 184 1 333 32 189 51 239 115 303 46 46 55
61 55 91 l0 37 -123 3 c-84 3 -129 8 -140 17 -18 15 -77 196 -77 237 0 74 88
305 223 585 41 85 94 207 117 270 69 185 186 395 279 502 83 94 172 130 359
144 65 5 95 11 99 20 3 10 23 14 59 14 66 0 151 17 182 37 34 21 49 64 62 181
12 99 11 104 -8 125 -40 44 -56 172 -26 215 9 14 26 22 43 22 l28 0 6 99 c10
142 36 218 93 270 25 24 64 51 87 62 42 18 40 19 -533 18 -567 0 -576 0 -651
-23z m127 -6302 c18 -60 52 -179 77 -264 l46 -155 0 263 1 262 90 0 c50 0 93
0 98 0 4 0 6 -13 6 -30 -1 -16 -2 -230 -3 -475 l-1 -446 -107 3 -107 3 -17 60
c-10 33 -34 121 -54 195 -21 74 -48 171 -61 215 l-23 80 0 -277 -1 -278 -95 0
-95 0 0 478 0 477 107 -1 108 -2 31 -108z m816 95 c49 -13 95 -60 109 -111 6
-23 9 -83 7 -134 -3 -102 -16 -129 -76 -170 l-32 -22 24 -6 c96 -24 141 -167
101 -320 -19 -73 -54 -119 -113 -148 -44 -22 -58 -23 -247 -23 l-200 0 -3 465
c-1 256 0 470 2 475 4 13 377 8 428 -6z m618 8 c0 -2 38 -208 85 -457 47 -249
85 -462 85 -472 0 -17 -8 -18 -112 -16 l-113 3 -7 60 c-4 33 -10 79 -13 103
l-6 42 -73 0 -73 0 -7 -72 c-4 -40 -9 -88 -13 -105 l-5 -33 -109 0 c-60 0
-109 2 -109 4 0 2 24 136 54 297 30 162 69 374 87 472 l32 177 149 0 c81 0
148 -2 148 -3z"/>
<path d="M3630 1315 l0 -105 43 0 c23 0 53 7 65 16 19 13 22 24 22 89 0 65 -3
76 -22 89 -12 9 -42 16 -65 16 l-43 0 0 -105z"/>
<path d="M3630 925 l0 -125 54 0 c81 0 89 12 84 127 -4 111 -13 123 -90 123
l-48 0 0 -125z"/>
<path d="M4297 1384 c-4 -4 -7 -22 -7 -39 0 -17 -7 -76 -15 -131 -8 -54 -17
-127 -21 -161 l-7 -63 52 0 c34 0 51 4 50 13 -4 77 -46 387 -52 381z"/>
<path d="M4396 7777 c56 -30 76 -46 104 -84 13 -18 29 -33 35 -33 37 0 85
-103 85 -184 0 -50 -23 -141 -50 -202 -16 -33 -18 -49 -10 -63 5 -11 10 -32
10 -47 0 -35 -73 -159 -105 -180 -14 -9 -39 -42 -56 -73 -48 -84 -95 -145
-123 -160 -26 -14 -40 -49 -30 -76 4 -9 25 -25 48 -36 98 -50 165 -94 170
-113 4 -12 53 -52 117 -95 128 -86 202 -163 248 -257 65 -134 88 -245 100
-494 6 -122 18 -215 45 -355 33 -169 43 -203 90 -305 30 -63 61 -131 69 -150
24 -55 45 -146 62 -270 17 -121 35 -170 63 -170 32 -1 100 -38 107 -60 4 -12
27 -31 52 -43 26 -12 50 -29 54 -37 4 -8 14 -28 22 -45 8 -16 27 -52 41 -80
l26 -49 -2 1574 c-3 1467 -4 1579 -21 1635 -65 222 -228 391 -439 452 -77 22
-94 23 -417 23 l-336 -1 41 -22z"/>
<path d="M4420 5642 c-158 -99 -145 -80 -263 -387 -68 -180 -88 -255 -66 -255
24 0 74 -48 96 -92 20 -38 138 -433 187 -625 9 -34 19 -69 22 -77 3 -8 -4 -22
-15 -33 l-20 -19 33 -126 c45 -167 82 -378 101 -568 23 -235 37 -288 105 -425
33 -66 82 -160 110 -210 28 -49 59 -118 70 -153 21 -69 66 -297 100 -517 31
-194 35 -208 87 -278 62 -84 103 -173 103 -222 0 -23 -6 -65 -14 -95 -8 -30
-22 -95 -31 -144 -16 -86 -16 -93 5 -225 14 -83 32 -156 47 -189 19 -41 23
-61 18 -92 -5 -31 2 -66 35 -167 82 -254 69 -401 -45 -502 -20 -17 -32 -31
-27 -31 23 0 124 36 177 62 87 44 212 172 259 265 75 151 70 28 73 1673 l4
1475 -28 -53 c-56 -109 -179 -217 -298 -261 -119 -45 -273 -45 -397 -2 -164
57 -308 216 -353 391 -25 95 -17 252 18 343 58 150 184 276 329 329 32 11 58
25 58 29 0 13 -72 168 -163 354 -90 183 -99 213 -171 594 -29 151 -57 276 -62
278 -5 1 -43 -19 -84 -45z"/>
</g>
</svg>
